<?xml version="1.0" encoding="utf-8"?>
<!-- Generator: Adobe Illustrator 20.0.0, SVG Export Plug-In . SVG Version: 6.00 Build 0)  -->
<svg version="1.1" id="Layer_1" xmlns="http://www.w3.org/2000/svg" xmlns:xlink="http://www.w3.org/1999/xlink" x="0px" y="0px"
	 viewBox="0 0 200 311" style="enable-background:new 0 0 200 311;" xml:space="preserve">
<style type="text/css">
	.st0{fill:#FFFFFF;}
	.st1{fill:#F6C5B7;}
	.st2{fill:none;stroke:#334ECF;stroke-width:3;stroke-miterlimit:10;}
</style>
<g>
	<path class="st0" d="M50.5,32.2h-2.3V1.5h2.3V32.2z"/>
	<path class="st0" d="M71.6,32.2h-2.4v-2.9c-0.8,0.9-3,3.3-7,3.3s-6.9-2.7-6.9-6.2c0-3.6,2.7-6,8.2-6.2l5.6-0.2v-1.1
		c0-3.8-2.5-5.6-5.8-5.6c-3.2,0-5.6,1.4-6.1,1.8l-0.9-1.7c1.3-0.9,3.8-2.1,6.9-2.1s5,1,6.2,2.3c1.2,1.3,2,2.9,2,6.4V32.2z
		 M69.3,21.8l-5.9,0.4c-4.3,0.2-5.7,2.1-5.7,4.3c0,2.2,1.7,4.2,5,4.2s5.6-2.2,6.5-3.8V21.8z"/>
	<path class="st0" d="M93.7,32.2h-2.3v-3.3c-1.3,2.4-3.8,3.8-6.7,3.8c-2.9,0-4.5-0.9-5.6-2.3c-1.1-1.4-1.6-3.6-1.6-6.5V11.6h2.3
		v12.6c0,3.1,0.6,6.4,5.1,6.4c4.6,0,6.4-4,6.4-8V11.6h2.3V32.2z"/>
	<path class="st0" d="M109.9,13.8c-0.5-0.2-1.1-0.4-2.2-0.4c-2,0-3.2,1.4-3.6,1.9c-0.4,0.5-1.5,2.2-1.5,5.8v11.1h-2.3V11.6h2.3v3.9
		c0.8-2.8,3-4.2,5.2-4.2c1.3,0,2.2,0.3,2.2,0.3L109.9,13.8z"/>
	<path class="st0" d="M130.7,22.4h-16.8c0.2,4.9,3,8.1,7.6,8.1c4.7,0,7.2-2.7,7.2-2.7l1.1,1.6c0,0-2.6,3.1-8.6,3.1
		c-6,0-9.9-4.4-9.9-10.8c0-6.4,4.5-10.7,10-10.7c5.4,0,9.3,4.1,9.3,9.6C130.8,21.5,130.7,22.4,130.7,22.4z M128.5,20.4
		c0-2.7-2-7.2-7.1-7.2c-5.1,0-7.2,4.3-7.3,7.2H128.5z"/>
	<path class="st0" d="M152,32.2h-2.4V20c0-3.3-0.6-6.8-5-6.8c-4.4,0-6.6,3.9-6.6,8.8v10.2h-2.3V11.6h2.3v3.8c1-2.4,3.7-4.2,6.7-4.2
		c5.9,0,7.3,3.8,7.3,8.7V32.2z"/>
</g>
<path class="st0" d="M79.2,140.1h-19L52.2,124l-2.8,3.5v12.6H33.6V91.7h15.8v14.7l10.2-14.7h18.6l-15.7,19.5L79.2,140.1z"/>
<path class="st0" d="M124.1,119.4c0,7.7-1.8,12.3-5.3,15.8c-3.5,3.5-9.1,5.7-16.8,5.7s-13.3-2.2-16.8-5.7c-3.5-3.5-5.3-8.1-5.3-15.8
	V91.7h15.9v28.4c0,2.9,0.6,4.2,1.6,5.3c1.1,1.1,2.5,1.8,4.6,1.8s3.5-0.7,4.6-1.8c1.1-1.1,1.5-2.5,1.5-5.3V91.7h16V119.4z M94.7,90.3
	c-3.3,0-5.8-2.2-5.8-5.6c0-3.3,2.5-5.6,5.8-5.6c3.4,0,5.8,2.3,5.8,5.6C100.6,88,98.1,90.3,94.7,90.3z M109.3,90.3
	c-3.4,0-5.8-2.2-5.8-5.6c0-3.3,2.5-5.6,5.8-5.6c3.3,0,5.8,2.3,5.8,5.6C115.1,88,112.6,90.3,109.3,90.3z"/>
<path class="st0" d="M160.3,136.8c-3.9,2.9-8.7,4.1-14.3,4.1s-12.1-1.5-18.7-6.5l7-11.9c4.5,3.8,10.8,5.3,12.9,5.3
	c2.1,0,3.6-0.6,3.6-2s-1.8-2-3.5-2.5c-1.8-0.5-5.6-1.8-7-2.2c-1.4-0.6-4.2-1.5-6.7-3.6c-2.5-2.1-4.4-5.1-4.4-10.3
	c0-5.3,2.7-9.3,5.6-11.7c2.9-2.5,7.8-4.2,14.3-4.2s13.1,2.3,17.3,5.8l-6,11.2c-3.7-3.2-9-4.6-11.5-4.6s-3.9,0.5-3.9,2
	c0,1.4,2.2,1.9,3.4,2.2c1.1,0.4,4.1,1.2,5.8,1.8c1.7,0.6,5.6,2,8.1,4.1c2.5,2.1,4.6,5.4,4.6,10.5
	C166.6,129.2,164.2,133.8,160.3,136.8z"/>
<path class="st0" d="M73,224.4H57.5l-0.6-27.7l-6.3,27.7H36.9l-6.3-27.7L30,224.4H14.4l2.8-48.4h20.4l6.1,26.3l6.2-26.3h20.4
	L73,224.4z"/>
<path class="st1" d="M94.5,224.4H78.7v-48.4h15.9V224.4z"/>
<path class="st0" d="M136.6,224.4h-35.1v-48.4h34.4v12.5h-18.6v5.3h17.6v12.4h-17.6v5.6h19.3V224.4z M132.9,163.3l-5.6,10.2h-15.8
	l-5.6-10.2h10.2l3.4,6l3.3-6H132.9z"/>
<path class="st0" d="M186.1,224.4h-18.3l-7.7-16.1h-2v16.1h-15.9v-48.4h21.1c6,0,10.5,1.1,14,3.5c3.5,2.5,6,6.7,6,11.9
	c0,9.8-6,13.3-8.1,14.6L186.1,224.4z M165.6,188.8c-0.7-0.6-1.8-0.9-3.5-0.9h-4v8.4h4c1.8,0,2.9-0.4,3.5-0.8
	c0.8-0.6,1.8-1.3,1.8-3.4C167.3,190,166.3,189.3,165.6,188.8z"/>
<path class="st1" d="M49,303.3c-1.8,1.8-6.7,6.1-17.2,6.1c-14.4,0-26-8.8-26-25c0-16.1,11.6-25,26-25c10.9,0,16.1,4.6,16.1,4.6
	l-4.2,13.3c0,0-4.9-4.2-10.9-4.2s-11.1,3.5-11.1,11.1c0,7.5,5.5,10.9,11.1,10.9s9.5-2.3,11.6-4.4L49,303.3z"/>
<path class="st0" d="M93.6,308.6H51.1v-11.2l21.1-24.6H51.8v-12.6h40.7V271l-21.1,24.6h22.1V308.6z"/>
<path class="st0" d="M145.9,308.6h-17.2l-1.9-6.8H113l-1.8,6.8H94.7l16.8-48.4h17.6L145.9,308.6z M133.1,256.2h-26.3v-7h26.3V256.2z
	 M123.5,289.6l-3.6-13l-3.6,13H123.5z"/>
<path class="st0" d="M194.3,308.6h-19l-8.1-16.1l-2.8,3.5v12.6h-15.8v-48.4h15.8v14.7l10.2-14.7h18.6l-15.7,19.5L194.3,308.6z"/>
<line class="st2" x1="36.5" y1="56.6" x2="163.7" y2="56.6"/>
</svg>
